<?xml version="1.0" standalone="no"?><!DOCTYPE svg PUBLIC "-//W3C//DTD SVG 1.1//EN" "http://www.w3.org/Graphics/SVG/1.1/DTD/svg11.dtd"><svg t="1762692717006" class="icon" viewBox="0 0 1024 1024" version="1.1" xmlns="http://www.w3.org/2000/svg" p-id="40577" width="256" height="256" xmlns:xlink="http://www.w3.org/1999/xlink"><path d="M793.892571 452.242286a164.132571 164.132571 0 0 0-14.116571-134.656 165.924571 165.924571 0 0 0-178.614857-79.616A163.986286 163.986286 0 0 0 478.500571 182.857143h-1.462857a165.924571 165.924571 0 0 0-153.124571 102.253714l33.938286 33.901714a123.392 123.392 0 0 1 198.582857-64.548571l-3.913143 2.194286-131.072 75.702857a21.284571 21.284571 0 0 0-10.752 18.541714v20.955429l30.025143 30.061714v-29.915429c0-0.621714 0.292571-1.206857 0.804571-1.572571l132.498286-76.434286a123.392 123.392 0 0 1 183.222857 127.707429h-0.036571a190.354286 190.354286 0 0 0-3.876572-2.340572l-131.072-75.702857a21.394286 21.394286 0 0 0-21.504 0l-138.386286 79.908572 22.016 22.016 27.574858-15.945143 71.277714 41.142857v73.618286l29.988571 29.988571V488.228571l55.405715 32a2.048 2.048 0 0 1 1.097142 1.499429v109.202286l43.008 43.044571v-150.784a21.284571 21.284571 0 0 0-10.678857-18.468571l-160-92.379429 55.369143-32a1.974857 1.974857 0 0 1 1.901714-0.182857l132.498286 76.507429a123.428571 123.428571 0 0 1-15.250286 221.147428l32.475429 32.475429a164.059429 164.059429 0 0 0 65.316571-63.597715 165.778286 165.778286 0 0 0-20.443428-194.377142h-0.036572zM233.398857 345.270857a163.986286 163.986286 0 0 0-23.771428 31.963429 166.034286 166.034286 0 0 0 20.406857 194.486857 164.096 164.096 0 0 0 14.116571 134.692571 165.924571 165.924571 0 0 0 178.614857 79.579429A164.022857 164.022857 0 0 0 545.426286 841.142857h1.462857a165.851429 165.851429 0 0 0 125.220571-57.124571l-30.72-30.72a123.318857 123.318857 0 0 1-94.902857 44.8h-0.219428c-28.781714 0-56.649143-10.093714-78.774858-28.525715 1.316571-0.731429 2.633143-1.462857 3.876572-2.230857l116.662857-67.364571-31.451429-31.488L449.828571 729.965714a123.501714 123.501714 0 0 1-168.484571-45.165714l0.073143 0.073143a123.099429 123.099429 0 0 1-14.738286-82.651429l3.876572 2.304 131.072 75.702857a21.357714 21.357714 0 0 0 21.540571 0l92.013714-53.138285-73.362285-73.362286-1.133715-0.658286v-0.512l-30.098285-30.061714v13.165714l-55.478858-31.963428a1.974857 1.974857 0 0 1-1.097142-1.536v-36.205715l-42.934858-43.008v77.750858c0 7.68 4.096 14.701714 10.715429 18.541714l160.036571 92.342857-55.405714 32a2.011429 2.011429 0 0 1-1.865143 0.182857L292.096 567.222857a123.538286 123.538286 0 0 1-28.16-191.378286l-30.537143-30.573714z" fill="#999999" p-id="40578"></path><path d="M246.930286 208.091429l568.905143 568.941714a27.428571 27.428571 0 0 1-38.765715 38.765714L208.091429 246.893714a27.428571 27.428571 0 0 1 38.802285-38.765714z" fill="#999999" p-id="40579"></path></svg>